<svg width="24" height="14" viewBox="0 0 24 14" fill="none" xmlns="http://www.w3.org/2000/svg">
<path d="M10.4486 0.764594L1.14548 9.81626C0.939827 10.0147 0.776596 10.2508 0.665203 10.511C0.55381 10.7711 0.49646 11.0502 0.49646 11.332C0.49646 11.6138 0.55381 11.8928 0.665203 12.153C0.776596 12.4131 0.939827 12.6493 1.14548 12.8477C1.55658 13.2453 2.11268 13.4685 2.69234 13.4685C3.272 13.4685 3.8281 13.2453 4.2392 12.8477L12.0064 5.29043L19.7736 12.8477C20.1847 13.2453 20.7408 13.4685 21.3205 13.4685C21.9001 13.4685 22.4562 13.2453 22.8673 12.8477C23.0707 12.6482 23.2316 12.4117 23.3408 12.1516C23.45 11.8915 23.5053 11.6129 23.5036 11.332C23.5053 11.051 23.45 10.7725 23.3408 10.5124C23.2316 10.2523 23.0707 10.0157 22.8673 9.81626L13.5642 0.764594C13.3603 0.564499 13.1176 0.405682 12.8502 0.297299C12.5828 0.188917 12.2961 0.133115 12.0064 0.133115C11.7168 0.133115 11.43 0.188917 11.1626 0.297299C10.8952 0.405682 10.6526 0.564499 10.4486 0.764594Z" fill="#5C51FF"/>
</svg>
