<svg width="24" height="23" viewBox="0 0 24 23" fill="none" xmlns="http://www.w3.org/2000/svg">
<path d="M0.317993 11.191C0.317993 5.11591 5.46672 0.19104 11.818 0.19104C18.1693 0.19104 23.318 5.11591 23.318 11.191C23.318 17.2662 18.1693 22.191 11.818 22.191C5.46672 22.191 0.317993 17.2662 0.317993 11.191Z" fill="#7BC8D9"/>
<path d="M13.0619 13.6845L14.7805 15.2715C15.1326 15.5959 15.1326 16.1227 14.7805 16.4475C14.4288 16.7722 13.8587 16.7722 13.5074 16.4475L11.8177 14.888L10.1294 16.4475C9.95337 16.6097 9.7227 16.6909 9.49203 16.6909C9.26173 16.6909 9.03143 16.6097 8.85539 16.4475C8.50369 16.1227 8.50369 15.5962 8.85502 15.2715L10.5738 13.6845C9.94803 13.5529 9.34451 13.3239 8.78862 13.0019C8.36793 12.757 8.24156 12.2439 8.50663 11.8552C8.77096 11.4659 9.32685 11.3487 9.74827 11.5936C11.0068 12.3246 12.6281 12.3248 13.8874 11.5936C14.3089 11.3487 14.8646 11.4659 15.1294 11.8552C15.3945 12.2436 15.2678 12.757 14.8471 13.0019C14.2912 13.3243 13.6877 13.5529 13.0619 13.6845Z" fill="white"/>
<path fill-rule="evenodd" clip-rule="evenodd" d="M8.7359 8.52977C8.7359 10.0947 10.1148 11.3676 11.8102 11.3676C13.506 11.3676 14.8845 10.0947 14.8845 8.52977C14.8845 6.96434 13.506 5.69104 11.8102 5.69104C10.1148 5.69104 8.7359 6.96434 8.7359 8.52977ZM13.0831 8.52977C13.0831 7.88165 12.5121 7.35463 11.8102 7.35463C11.1088 7.35463 10.5373 7.88165 10.5373 8.52977C10.5373 9.17737 11.1088 9.70473 11.8102 9.70473C12.5121 9.70473 13.0831 9.17737 13.0831 8.52977Z" fill="white"/>
</svg>
