<svg width="19" height="20" viewBox="0 0 19 20" fill="none" xmlns="http://www.w3.org/2000/svg">
<path d="M18.9838 15.912C18.9838 16.2485 18.909 16.5944 18.7501 16.9308C18.5912 17.2673 18.3855 17.5852 18.1145 17.8843C17.6565 18.389 17.1517 18.7536 16.5815 18.9872C16.0207 19.2209 15.4131 19.3424 14.7588 19.3424C13.8054 19.3424 12.7866 19.1181 11.7116 18.6601C10.6367 18.2021 9.56177 17.5852 8.49619 16.8093C7.42126 16.0242 6.40242 15.1549 5.43031 14.1921C4.46754 13.22 3.59825 12.2012 2.82243 11.1356C2.05596 10.07 1.43905 9.00442 0.990382 7.94818C0.541716 6.8826 0.317383 5.86375 0.317383 4.89164C0.317383 4.25603 0.429549 3.64846 0.653882 3.08763C0.878215 2.51745 1.23341 1.99401 1.72881 1.52665C2.32703 0.937774 2.98134 0.64801 3.67303 0.64801C3.93475 0.64801 4.19648 0.704094 4.43016 0.81626C4.67318 0.928427 4.88817 1.09668 5.05642 1.3397L7.22497 4.39624C7.39322 4.62992 7.51473 4.84491 7.59886 5.05055C7.68298 5.24684 7.72972 5.44313 7.72972 5.62073C7.72972 5.84506 7.66429 6.06939 7.53343 6.28438C7.41192 6.49936 7.23432 6.7237 7.00998 6.94803L6.2996 7.68646C6.19678 7.78928 6.15004 7.91079 6.15004 8.06035C6.15004 8.13513 6.15939 8.20056 6.17808 8.27533C6.20613 8.35011 6.23417 8.40619 6.25286 8.46228C6.42111 8.77074 6.71087 9.17267 7.12215 9.65872C7.54278 10.1448 7.99144 10.6402 8.4775 11.1356C8.98225 11.631 9.4683 12.089 9.9637 12.5096C10.4498 12.9209 10.8517 13.2013 11.1695 13.3696C11.2162 13.3883 11.2723 13.4163 11.3377 13.4443C11.4125 13.4724 11.4873 13.4817 11.5714 13.4817C11.7303 13.4817 11.8518 13.4256 11.9547 13.3228L12.665 12.6218C12.8987 12.3881 13.1231 12.2105 13.338 12.0983C13.553 11.9675 13.768 11.9021 14.0017 11.9021C14.1793 11.9021 14.3662 11.9394 14.5719 12.0236C14.7775 12.1077 14.9925 12.2292 15.2262 12.3881L18.3201 14.5847C18.5631 14.7529 18.7314 14.9492 18.8342 15.1829C18.9277 15.4166 18.9838 15.6503 18.9838 15.912Z" fill="#5C51FF"/>
</svg>
