<svg width="18" height="19" viewBox="0 0 18 19" fill="none" xmlns="http://www.w3.org/2000/svg">
<path d="M9 2.27692L11.4246 6.43972L16.1329 7.45929L12.9231 11.0516L13.4084 15.8445L9 13.9019L4.59161 15.8445L5.07689 11.0516L1.86708 7.45929L6.57539 6.43972L9 2.27692Z" fill="#F2C94C"/>
<path d="M16.5 7.27942C16.4526 7.14223 16.3665 7.02174 16.252 6.93254C16.1375 6.84335 15.9996 6.78929 15.855 6.77692L11.5875 6.15442L9.67498 2.27692C9.61357 2.15012 9.51768 2.04318 9.3983 1.96835C9.27892 1.89352 9.14088 1.85384 8.99998 1.85384C8.85909 1.85384 8.72105 1.89352 8.60167 1.96835C8.48229 2.04318 8.3864 2.15012 8.32498 2.27692L6.41248 6.14692L2.14498 6.77692C2.00617 6.79665 1.87568 6.85489 1.7683 6.94504C1.66092 7.03518 1.58095 7.15362 1.53748 7.28692C1.49769 7.41717 1.49412 7.55581 1.52715 7.68794C1.56019 7.82007 1.62858 7.94071 1.72498 8.03692L4.82248 11.0369L4.07248 15.2969C4.0422 15.4382 4.0534 15.5853 4.10472 15.7204C4.15605 15.8555 4.24531 15.9729 4.36178 16.0585C4.47825 16.144 4.61696 16.1941 4.76123 16.2027C4.9055 16.2113 5.04918 16.1781 5.17498 16.1069L8.99998 14.1044L12.825 16.1069C12.9302 16.1663 13.0491 16.1973 13.17 16.1969C13.3289 16.1975 13.4838 16.1476 13.6125 16.0544C13.7288 15.9711 13.8189 15.8562 13.8721 15.7233C13.9252 15.5904 13.9393 15.445 13.9125 15.3044L13.1625 11.0444L16.26 8.04442C16.3683 7.95268 16.4483 7.8321 16.4908 7.69668C16.5333 7.56126 16.5365 7.41657 16.5 7.27942ZM11.8875 10.2794C11.8007 10.3637 11.7356 10.4678 11.6977 10.5827C11.6598 10.6976 11.6503 10.82 11.67 10.9394L12.21 14.0894L9.38998 12.5894C9.28039 12.5352 9.15976 12.507 9.03748 12.507C8.91521 12.507 8.79458 12.5352 8.68498 12.5894L5.86498 14.0894L6.40498 10.9394C6.42466 10.82 6.41516 10.6976 6.37729 10.5827C6.33941 10.4678 6.27429 10.3637 6.18748 10.2794L3.93748 8.02942L7.09498 7.57192C7.21648 7.55502 7.33198 7.50857 7.43136 7.43666C7.53073 7.36474 7.61095 7.26955 7.66498 7.15942L8.99998 4.30192L10.41 7.16692C10.464 7.27705 10.5442 7.37224 10.6436 7.44416C10.743 7.51607 10.8585 7.56252 10.98 7.57942L14.1375 8.03692L11.8875 10.2794Z" fill="#F2C94C"/>
</svg>
