<svg width="23" height="23" viewBox="0 0 23 23" fill="none" xmlns="http://www.w3.org/2000/svg">
<path d="M11.068 22.191C17.1431 22.191 22.068 17.2662 22.068 11.191C22.068 5.11591 17.1431 0.19104 11.068 0.19104C4.99286 0.19104 0.0679932 5.11591 0.0679932 11.191C0.0679932 17.2662 4.99286 22.191 11.068 22.191Z" fill="#7BC8D9"/>
<path d="M9.05132 16.2327C8.69496 16.2327 8.75551 16.0981 8.63261 15.7588L7.58466 12.3099L15.6513 7.52437" fill="#7BC8D9"/>
<path d="M9.05133 16.2327C9.32633 16.2327 9.44783 16.1069 9.60133 15.9577L11.068 14.5316L9.23851 13.4283" fill="#7BC8D9"/>
<path d="M9.23833 13.4286L13.6713 16.7038C14.1772 16.9829 14.5423 16.8384 14.6683 16.2341L16.4728 7.73085C16.6575 6.99016 16.1904 6.65422 15.7065 6.87393L5.11073 10.9596C4.38747 11.2497 4.39168 11.6532 4.97889 11.833L7.698 12.6817L13.993 8.71022C14.2902 8.53001 14.5629 8.6269 14.3391 8.82557" fill="white"/>
</svg>
