<svg width="24" height="23" viewBox="0 0 24 23" fill="none" xmlns="http://www.w3.org/2000/svg">
<path d="M12.318 0.19104C18.6693 0.19104 23.818 5.11591 23.818 11.191C23.818 17.2662 18.6693 22.191 12.318 22.191C5.96672 22.191 0.817993 17.2662 0.817993 11.191C0.817993 5.11591 5.96672 0.19104 12.318 0.19104Z" fill="#7BC8D9"/>
<path d="M15.3818 9.79698C15.3259 9.36233 15.1862 9.02105 14.9382 8.71875C14.6161 8.3295 14.2045 8.09641 13.5952 7.95814C13.1981 7.86598 13.0376 7.87656 12.894 8.00205C12.7602 8.11962 12.7341 8.35531 12.8364 8.50794C12.9083 8.61872 12.9912 8.65841 13.2219 8.70172C13.5291 8.75578 13.7414 8.82595 13.9345 8.93157C14.3444 9.15795 14.5353 9.51222 14.5557 10.0858C14.5653 10.355 14.5896 10.4378 14.6879 10.5333C14.8702 10.7079 15.1945 10.674 15.3321 10.4651C15.3826 10.3863 15.3903 10.352 15.3956 10.1692C15.3992 10.056 15.3941 9.88746 15.3818 9.79698Z" fill="white"/>
<path d="M16.9873 10.287C16.9063 8.95541 16.3618 7.88406 15.3873 7.13027C14.8382 6.70672 14.1745 6.41547 13.4471 6.27383C13.1806 6.22318 12.6899 6.18212 12.6057 6.2056C12.5263 6.22735 12.414 6.30962 12.3639 6.38402C12.3109 6.46469 12.299 6.64482 12.3442 6.74901C12.4171 6.92319 12.5527 6.98473 12.9326 7.01652C13.5182 7.06552 14.1222 7.26231 14.5785 7.55365C15.0995 7.88536 15.5137 8.33906 15.7816 8.8722C16.0131 9.33028 16.1555 9.99042 16.1516 10.5816C16.1502 10.7954 16.1848 10.9161 16.2747 11.0044C16.4103 11.1401 16.6081 11.1698 16.7827 11.0797C16.9761 10.9823 17.0214 10.8115 16.9873 10.287Z" fill="white"/>
<path d="M18.7639 15.4152C18.7366 15.3391 18.6731 15.2217 18.6277 15.1543C18.3417 14.7412 16.8052 13.591 16.038 13.2148C15.6 12.9996 15.2754 12.9278 15.0348 12.9952C14.7761 13.0648 14.6399 13.18 14.2064 13.6953C14.0316 13.9019 13.8523 14.0954 13.8047 14.1258C13.6866 14.2041 13.4551 14.2672 13.2917 14.2672C12.9127 14.265 12.225 14.0302 11.6961 13.7214C11.2853 13.4823 10.7588 13.0539 10.3548 12.63C9.87813 12.132 9.55361 11.6928 9.29711 11.1971C8.96576 10.5601 8.88178 10.1708 9.02021 9.88601C9.05426 9.81426 9.09966 9.73818 9.12006 9.71423C9.14051 9.69252 9.35387 9.52509 9.58988 9.34244C10.0529 8.99023 10.1278 8.90978 10.2141 8.66843C10.323 8.36184 10.2935 8.04875 10.1255 7.7335C9.99616 7.49432 9.65799 6.9725 9.41288 6.63549C9.08831 6.19196 8.28031 5.24398 8.11914 5.11566C7.82863 4.88956 7.45644 4.8504 7.04559 5.00263C6.61212 5.16353 5.79956 5.78971 5.45229 6.22674C5.13908 6.62245 5.01882 6.90292 5.00065 7.27255C4.98477 7.57693 5.012 7.70304 5.17996 8.09225C6.49409 11.1449 8.45505 13.5823 11.1492 15.5174C12.5564 16.5284 14.0157 17.2981 15.5296 17.8243C16.4125 18.1309 16.7961 18.1461 17.2477 17.8939C17.4384 17.7851 17.9105 17.322 18.1737 16.985C18.6095 16.424 18.7707 16.1653 18.8161 15.9588C18.8478 15.8174 18.8229 15.5718 18.7639 15.4152Z" fill="white"/>
<path d="M18.6216 10.5929C18.5926 9.83964 18.46 9.2218 18.1835 8.53295C17.9106 7.85536 17.6343 7.4132 17.1126 6.81515C16.6194 6.25442 16.2363 5.93425 15.6287 5.57786C14.781 5.0813 13.7494 4.7527 12.5932 4.6145C12.1989 4.56621 12.1097 4.56965 11.9888 4.64686C11.7544 4.7931 11.7575 5.15788 11.9926 5.30194C12.0705 5.34776 12.1396 5.36445 12.4549 5.40394C12.9391 5.46629 13.2504 5.52504 13.6198 5.62145C15.0683 6.0002 16.1822 6.7744 16.9269 7.92365C17.5502 8.88156 17.8089 9.83955 17.7721 11.0631C17.7593 11.4767 17.7686 11.5495 17.8347 11.6489C17.9613 11.8341 18.2952 11.8707 18.4664 11.717C18.573 11.6233 18.5931 11.553 18.6141 11.199C18.6241 11.0143 18.6263 10.7417 18.6216 10.5929Z" fill="white"/>
</svg>
