<svg width="23" height="23" viewBox="0 0 23 23" fill="none" xmlns="http://www.w3.org/2000/svg">
<path d="M0.567993 11.191C0.567993 5.11591 5.49286 0.19104 11.568 0.19104C17.6431 0.19104 22.568 5.11591 22.568 11.191C22.568 17.2662 17.6431 22.191 11.568 22.191C5.49286 22.191 0.567993 17.2662 0.567993 11.191Z" fill="#7BC8D9"/>
<path d="M12.1434 14.8009C12.1434 14.8009 12.3552 14.7778 12.4636 14.6635C12.5629 14.5587 12.5595 14.361 12.5595 14.361C12.5595 14.361 12.5463 13.4377 12.983 13.3014C13.4134 13.1673 13.966 14.1942 14.5526 14.5891C14.9956 14.8877 15.3319 14.8223 15.3319 14.8223L16.8991 14.8009C16.8991 14.8009 17.7186 14.7513 17.3301 14.1187C17.298 14.0669 17.1034 13.6506 16.1651 12.7955C15.1821 11.9004 15.3141 12.0452 16.4974 10.4966C17.2182 9.55362 17.5063 8.97791 17.4162 8.73174C17.3307 8.49627 16.8004 8.5588 16.8004 8.5588L15.0363 8.5695C15.0363 8.5695 14.9055 8.55204 14.8085 8.60893C14.7138 8.6647 14.6524 8.79483 14.6524 8.79483C14.6524 8.79483 14.3735 9.52432 14.0011 10.1451C13.2154 11.4542 12.9015 11.5235 12.773 11.4424C12.474 11.2526 12.5486 10.6808 12.5486 10.2747C12.5486 9.00551 12.7448 8.47656 12.1669 8.33967C11.9753 8.29404 11.8341 8.26418 11.3434 8.25912C10.7139 8.25292 10.1813 8.26137 9.87946 8.40614C9.67861 8.50247 9.52366 8.71765 9.61835 8.73005C9.73485 8.74526 9.99883 8.7999 10.1389 8.98692C10.3196 9.22858 10.3133 9.77049 10.3133 9.77049C10.3133 9.77049 10.4172 11.2644 10.0706 11.4497C9.83298 11.577 9.50702 11.3174 8.80631 10.1293C8.44764 9.52094 8.17677 8.84834 8.17677 8.84834C8.17677 8.84834 8.12455 8.72272 8.031 8.65513C7.91795 8.57345 7.76013 8.5481 7.76013 8.5481L6.08384 8.5588C6.08384 8.5588 5.8319 8.56556 5.73951 8.67315C5.65744 8.76835 5.7332 8.96608 5.7332 8.96608C5.7332 8.96608 7.04566 11.9804 8.532 13.4996C9.89496 14.8922 11.4421 14.8009 11.4421 14.8009H12.1434Z" fill="white"/>
</svg>
