<svg width="23" height="23" viewBox="0 0 23 23" fill="none" xmlns="http://www.w3.org/2000/svg">
<path d="M11.818 22.191C17.8931 22.191 22.818 17.2662 22.818 11.191C22.818 5.11591 17.8931 0.19104 11.818 0.19104C5.74286 0.19104 0.817993 5.11591 0.817993 11.191C0.817993 17.2662 5.74286 22.191 11.818 22.191Z" fill="#7BC8D9"/>
<path fill-rule="evenodd" clip-rule="evenodd" d="M12.1806 17.311H12.1779C11.0831 17.3106 10.0075 17.0359 9.05211 16.5148L5.58466 17.4244L6.5126 14.0349C5.9402 13.043 5.639 11.9177 5.6395 10.7649C5.64093 7.15849 8.5752 4.22438 12.1805 4.22438C13.9303 4.22514 15.5726 4.90632 16.8075 6.14269C18.0424 7.37901 18.7222 9.02237 18.7215 10.7701C18.72 14.3757 15.7869 17.3095 12.1806 17.311ZM9.21276 15.3307L9.41128 15.4485C10.246 15.9438 11.2028 16.2059 12.1784 16.2063H12.1806C15.177 16.2063 17.6159 13.7674 17.6171 10.7697C17.6176 9.31702 17.0527 7.95113 16.0263 6.9235C14.9998 5.89587 13.6348 5.32967 12.1827 5.32916C9.18391 5.32916 6.74505 7.7678 6.74386 10.7653C6.74344 11.7925 7.03087 12.793 7.57508 13.6585L7.70434 13.8642L7.15513 15.8704L9.21276 15.3307ZM15.252 12.1783C15.366 12.2334 15.443 12.2706 15.4758 12.3255C15.5167 12.3936 15.5167 12.7209 15.3806 13.1027C15.2443 13.4844 14.5914 13.8329 14.2774 13.8798C13.9958 13.9219 13.6395 13.9394 13.248 13.815C13.0106 13.7397 12.7062 13.6391 12.3162 13.4707C10.7841 12.8092 9.74863 11.3241 9.55293 11.0435C9.53922 11.0238 9.52963 11.0101 9.52428 11.0029L9.52297 11.0012C9.43648 10.8858 8.85693 10.1125 8.85693 9.31223C8.85693 8.55941 9.22674 8.16481 9.39695 7.98318C9.40862 7.97073 9.41934 7.95929 9.42895 7.9488C9.57875 7.78517 9.75583 7.74427 9.86478 7.74427C9.97372 7.74427 10.0828 7.74527 10.178 7.75006C10.1898 7.75065 10.202 7.75057 10.2146 7.7505C10.3099 7.74994 10.4286 7.74925 10.5457 8.03061C10.5908 8.1389 10.6567 8.29943 10.7263 8.46874C10.8669 8.81112 11.0223 9.1894 11.0496 9.24414C11.0905 9.32595 11.1177 9.42136 11.0633 9.53048C11.0551 9.54685 11.0475 9.56229 11.0403 9.57704C10.9994 9.66058 10.9693 9.72202 10.8998 9.80311C10.8725 9.83499 10.8443 9.86937 10.8161 9.90374C10.7599 9.97221 10.7036 10.0407 10.6547 10.0895C10.5729 10.171 10.4877 10.2594 10.583 10.423C10.6784 10.5866 11.0064 11.1218 11.4922 11.5552C12.0145 12.021 12.4684 12.2179 12.6985 12.3177C12.7435 12.3372 12.7799 12.353 12.8066 12.3664C12.9699 12.4482 13.0653 12.4345 13.1606 12.3255C13.256 12.2164 13.5692 11.8482 13.6781 11.6846C13.787 11.5211 13.896 11.5483 14.0458 11.6028C14.1957 11.6574 14.9992 12.0528 15.1626 12.1346C15.1945 12.1505 15.2244 12.165 15.252 12.1783Z" fill="white"/>
</svg>
