<svg  viewBox="0 0 77 77" fill="none" xmlns="http://www.w3.org/2000/svg">
<path d="M28.2776 5.7735C34.4656 2.20085 42.0896 2.20085 48.2776 5.7735L61.427 13.3653C67.615 16.9379 71.427 23.5405 71.427 30.6858V45.8694C71.427 53.0147 67.615 59.6172 61.427 63.1899L48.2776 70.7817C42.0896 74.3543 34.4656 74.3543 28.2776 70.7817L15.1282 63.1899C8.9402 59.6172 5.12822 53.0147 5.12822 45.8694V30.6858C5.12822 23.5405 8.9402 16.9379 15.1282 13.3653L28.2776 5.7735Z" fill="#7BC8D9"/>
<path d="M17 56.4647C16.1716 56.4647 15.5 57.1362 15.5 57.9647C15.5 58.7931 16.1716 59.4647 17 59.4647V56.4647ZM57.0254 59.4647C57.8538 59.4647 58.5254 58.7931 58.5254 57.9647C58.5254 57.1362 57.8538 56.4647 57.0254 56.4647V59.4647ZM19.0012 33.8894L20.5012 33.8956V33.8894H19.0012ZM20.5421 30.7475L19.6206 29.5639L19.6111 29.5714L20.5421 30.7475ZM34.551 19.8405L33.6301 18.6565L33.6295 18.657L34.551 19.8405ZM39.4742 19.8405L40.3946 18.6561L40.3872 18.6504L39.4742 19.8405ZM53.4831 30.7274L52.5626 31.9118L52.5638 31.9128L53.4831 30.7274ZM32.0095 57.9645H30.5095C30.5095 58.793 31.1811 59.4645 32.0095 59.4645V57.9645ZM42.0159 57.9645V59.4645C42.8443 59.4645 43.5159 58.793 43.5159 57.9645H42.0159ZM49.522 27.9606C49.5303 28.789 50.2086 29.4538 51.037 29.4455C51.8654 29.4373 52.5302 28.759 52.5219 27.9306L49.522 27.9606ZM50.9619 21.9418L52.4619 21.9268C52.4536 21.1043 51.7845 20.4418 50.9619 20.4418V21.9418ZM42.1563 20.4418C41.3279 20.4418 40.6563 21.1134 40.6563 21.9418C40.6563 22.7702 41.3279 23.4418 42.1563 23.4418V20.4418ZM17 59.4647H57.0254V56.4647H17V59.4647ZM20.4011 57.9709L20.5012 33.8956L17.5012 33.8831L17.4011 57.9585L20.4011 57.9709ZM20.5012 33.8894C20.5012 33.1435 20.8588 32.4099 21.4732 31.9235L19.6111 29.5714C18.3043 30.606 17.5012 32.1937 17.5012 33.8894H20.5012ZM21.4636 31.9311L35.4725 21.0241L33.6295 18.657L19.6207 29.5639L21.4636 31.9311ZM35.472 21.0246C36.3675 20.328 37.635 20.3202 38.5612 21.0307L40.3872 18.6504C38.3914 17.1194 35.6164 17.1116 33.6301 18.6565L35.472 21.0246ZM38.5537 21.0249L52.5626 31.9118L54.4035 29.5431L40.3946 18.6561L38.5537 21.0249ZM52.5638 31.9128C53.1726 32.3849 53.524 33.1053 53.524 33.8894H56.524C56.524 32.1919 55.7547 30.5909 54.4023 29.5421L52.5638 31.9128ZM53.524 33.8894V57.9647H56.524V33.8894H53.524ZM39.014 46.4582H35.0114V49.4582H39.014V46.4582ZM35.0114 46.4582C32.5219 46.4582 30.5095 48.4706 30.5095 50.9601H33.5095C33.5095 50.1275 34.1788 49.4582 35.0114 49.4582V46.4582ZM30.5095 50.9601V57.9645H33.5095V50.9601H30.5095ZM32.0095 59.4645H42.0159V56.4645H32.0095V59.4645ZM43.5159 57.9645V50.9601H40.5159V57.9645H43.5159ZM43.5159 50.9601C43.5159 48.4706 41.5035 46.4582 39.014 46.4582V49.4582C39.8466 49.4582 40.5159 50.1275 40.5159 50.9601H43.5159ZM32.0095 39.9541H28.007V42.9541H32.0095V39.9541ZM28.007 39.9541C27.7347 39.9541 27.5057 39.7251 27.5057 39.4528H24.5057C24.5057 41.3819 26.0779 42.9541 28.007 42.9541V39.9541ZM27.5057 39.4528V36.4509H24.5057V39.4528H27.5057ZM27.5057 36.4509C27.5057 36.1786 27.7347 35.9496 28.007 35.9496V32.9496C26.0779 32.9496 24.5057 34.5218 24.5057 36.4509H27.5057ZM28.007 35.9496H32.0095V32.9496H28.007V35.9496ZM32.0095 35.9496C32.2818 35.9496 32.5108 36.1786 32.5108 36.4509H35.5108C35.5108 34.5218 33.9387 32.9496 32.0095 32.9496V35.9496ZM32.5108 36.4509V39.4528H35.5108V36.4509H32.5108ZM32.5108 39.4528C32.5108 39.7251 32.2818 39.9541 32.0095 39.9541V42.9541C33.9387 42.9541 35.5108 41.3819 35.5108 39.4528H32.5108ZM46.0187 39.9541H42.0161V42.9541H46.0187V39.9541ZM42.0161 39.9541C41.7438 39.9541 41.5149 39.7251 41.5149 39.4528H38.5149C38.5149 41.3819 40.087 42.9541 42.0161 42.9541V39.9541ZM41.5149 39.4528V36.4509H38.5149V39.4528H41.5149ZM41.5149 36.4509C41.5149 36.1786 41.7438 35.9496 42.0161 35.9496V32.9496C40.087 32.9496 38.5149 34.5218 38.5149 36.4509H41.5149ZM42.0161 35.9496H46.0187V32.9496H42.0161V35.9496ZM46.0187 35.9496C46.2909 35.9496 46.5199 36.1786 46.5199 36.4509H49.5199C49.5199 34.5218 47.9478 32.9496 46.0187 32.9496V35.9496ZM46.5199 36.4509V39.4528H49.5199V36.4509H46.5199ZM46.5199 39.4528C46.5199 39.7251 46.2909 39.9541 46.0187 39.9541V42.9541C47.9478 42.9541 49.5199 41.3819 49.5199 39.4528H46.5199ZM52.5219 27.9306L52.4619 21.9268L49.462 21.9568L49.522 27.9606L52.5219 27.9306ZM50.9619 20.4418H42.1563V23.4418H50.9619V20.4418Z" fill="white"/>
</svg>
