<svg  viewBox="0 0 77 77" fill="none" xmlns="http://www.w3.org/2000/svg">
<path d="M28.2776 5.7735C34.4656 2.20085 42.0896 2.20085 48.2776 5.7735L61.427 13.3653C67.615 16.9379 71.427 23.5405 71.427 30.6858V45.8694C71.427 53.0147 67.615 59.6172 61.427 63.1899L48.2776 70.7817C42.0896 74.3543 34.4656 74.3543 28.2776 70.7817L15.1282 63.1899C8.9402 59.6172 5.12822 53.0147 5.12822 45.8694V30.6858C5.12822 23.5405 8.9402 16.9379 15.1282 13.3653L28.2776 5.7735Z" fill="#7BC8D9"/>
<path d="M29.0064 17V23.0038M45.0165 17V23.0038M20.0006 31.189H54.0222M43.7557 57.0254C45.1566 58.2862 46.9978 59.0267 49.0191 59.0267C51.9409 59.0267 54.4825 57.4657 55.8634 55.1442C56.6039 53.9434 57.0241 52.5225 57.0241 51.0216C57.0241 49.0003 56.2637 47.1591 55.0229 45.7382M43.7557 57.0254C43.1353 56.5051 42.595 55.8647 42.1747 55.1442C41.4342 53.9434 41.014 52.5225 41.014 51.0216C41.014 46.5988 44.5962 43.0165 49.0191 43.0165C51.4206 43.0165 53.5619 44.0772 55.0229 45.7382M43.7557 57.0254H29.0064C22.0019 57.0254 19 53.0229 19 47.0191V30.0083C19 24.0044 22.0019 20.0019 29.0064 20.0019H45.0165C52.021 20.0019 55.0229 24.0044 55.0229 30.0083V45.7382M45.8971 51.0216L47.8783 53.0028L52.141 49.0603M37.0024 40.4149H37.0204M29.5953 40.4149H29.6133M29.5953 46.4187H29.6133" stroke="white" stroke-width="3" stroke-linecap="round" stroke-linejoin="round"/>
</svg>
