<svg  viewBox="0 0 77 77" fill="none" xmlns="http://www.w3.org/2000/svg">
<path d="M28.2776 5.7735C34.4656 2.20085 42.0896 2.20085 48.2776 5.7735L61.427 13.3653C67.615 16.9379 71.427 23.5405 71.427 30.6858V45.8694C71.427 53.0147 67.615 59.6172 61.427 63.1899L48.2776 70.7817C42.0896 74.3543 34.4656 74.3543 28.2776 70.7817L15.1282 63.1899C8.9402 59.6172 5.12822 53.0147 5.12822 45.8694V30.6858C5.12822 23.5405 8.9402 16.9379 15.1282 13.3653L28.2776 5.7735Z" fill="#ED4D7E"/>
<path d="M34.3528 29.608H40.6568M26.4938 59.0267H48.5158C54.3154 59.0267 56.6269 55.4754 56.9001 51.1467L57.9928 33.7897C58.287 29.2508 54.6727 25.4053 50.1128 25.4053C48.831 25.4053 47.6542 24.6699 47.0658 23.5351L45.5529 20.4882C44.5863 18.576 42.0647 17 39.9213 17H35.1093C32.9449 17 30.4233 18.576 29.4567 20.4882L27.9437 23.5351C27.3553 24.6699 26.1786 25.4053 24.8968 25.4053C20.3369 25.4053 16.7226 29.2508 17.0168 33.7897L18.1095 51.1467C18.3616 55.4754 20.6941 59.0267 26.4938 59.0267ZM37.5048 50.6213C41.2662 50.6213 44.3341 47.5534 44.3341 43.792C44.3341 40.0306 41.2662 36.9627 37.5048 36.9627C33.7434 36.9627 30.6754 40.0306 30.6754 43.792C30.6754 47.5534 33.7434 50.6213 37.5048 50.6213Z" stroke="white" stroke-width="3" stroke-linecap="round" stroke-linejoin="round"/>
</svg>
