<svg  viewBox="0 0 67 77" fill="none" xmlns="http://www.w3.org/2000/svg">
<path d="M23.1494 5.7735C29.3374 2.20085 36.9613 2.20085 43.1494 5.7735L56.2987 13.3653C62.4868 16.9379 66.2987 23.5405 66.2987 30.6858V45.8694C66.2987 53.0147 62.4868 59.6172 56.2987 63.1899L43.1494 70.7817C36.9613 74.3543 29.3374 74.3543 23.1494 70.7817L10 63.1899C3.81198 59.6172 0 53.0147 0 45.8694V30.6858C0 23.5405 3.81198 16.9379 10 13.3653L23.1494 5.7735Z" fill="#ED4D7E"/>
<path d="M51.1888 35.6492V51.9971C51.1888 54.3121 49.3121 56.1888 46.9971 56.1888H19.1918C16.8767 56.1888 15 54.3121 15 51.9971V24.1918C15 21.8767 16.8767 20 19.1918 20H35.5396M51.1888 35.6492L35.5396 20M51.1888 35.6492H39.7313C37.4163 35.6492 35.5396 33.7725 35.5396 31.4575V20M20.8682 39.3171H34.3168M20.8682 46.6526H29.4264" stroke="white" stroke-width="3" stroke-linecap="round"/>
</svg>
