<svg  viewBox="0 0 67 77" fill="none" xmlns="http://www.w3.org/2000/svg">
<path d="M23.1494 5.7735C29.3374 2.20085 36.9613 2.20085 43.1494 5.7735L56.2987 13.3653C62.4868 16.9379 66.2987 23.5405 66.2987 30.6858V45.8694C66.2987 53.0147 62.4868 59.6172 56.2987 63.1899L43.1494 70.7817C36.9613 74.3543 29.3374 74.3543 23.1494 70.7817L10 63.1899C3.81198 59.6172 0 53.0147 0 45.8694V30.6858C0 23.5405 3.81198 16.9379 10 13.3653L23.1494 5.7735Z" fill="#5C51FF"/>
<path d="M17 51.8609H15.5H17ZM22.1345 24.1345V22.6345V24.1345ZM25.3872 24.1345V25.6345H26.2533L26.6863 24.8845L25.3872 24.1345ZM27.2676 22.2545L26.518 20.9553L26.518 20.9553L27.2676 22.2545ZM32.4035 19V17.5V19ZM36.8292 20.5848L35.4434 21.1588L35.4434 21.1588L36.8292 20.5848ZM39.5918 22.2552L40.3418 20.9562L39.5918 22.2552ZM41.4711 24.1345L40.1721 24.8845L40.6051 25.6345H41.4711V24.1345ZM37.0118 21.311L38.5043 21.1612L37.0118 21.311ZM37.2812 21.5737L37.3562 20.0756L37.2812 21.5737ZM29.5795 21.5736L29.5053 20.0754L29.5795 21.5736ZM29.8491 21.3108L31.3416 21.4606L29.8491 21.3108ZM23.1612 37.1979C22.3327 37.1979 21.6612 37.8695 21.6612 38.6979C21.6612 39.5264 22.3327 40.1979 23.1612 40.1979V37.1979ZM28.2957 38.6979V40.1979C28.6512 40.1979 28.9951 40.0717 29.2661 39.8417L28.2957 38.6979ZM32.1466 35.4305L33.3466 34.5305C33.0985 34.1997 32.7249 33.986 32.314 33.9399C31.9031 33.8937 31.4914 34.0192 31.1761 34.2867L32.1466 35.4305ZM35.9975 40.565L34.7975 41.465C35.0873 41.8515 35.5454 42.0747 36.0284 42.0647C36.5113 42.0548 36.9599 41.8129 37.2335 41.4148L35.9975 40.565ZM38.5647 36.8308L39.8008 35.981C39.5209 35.574 39.0587 35.3308 38.5647 35.3308C38.0708 35.3308 37.6085 35.574 37.3287 35.981L38.5647 36.8308ZM39.8483 38.6979L38.6123 39.5477C38.8921 39.9548 39.3544 40.1979 39.8483 40.1979V38.6979ZM43.6992 40.1979C44.5277 40.1979 45.1992 39.5264 45.1992 38.6979C45.1992 37.8695 44.5277 37.1979 43.6992 37.1979V40.1979ZM23.1612 45.2265C22.3327 45.2265 21.6612 45.8981 21.6612 46.7265C21.6612 47.5549 22.3327 48.2265 23.1612 48.2265V45.2265ZM38.5647 48.2265C39.3931 48.2265 40.0647 47.5549 40.0647 46.7265C40.0647 45.8981 39.3931 45.2265 38.5647 45.2265V48.2265ZM23.1612 50.361C22.3327 50.361 21.6612 51.0326 21.6612 51.861C21.6612 52.6895 22.3327 53.361 23.1612 53.361V50.361ZM33.4302 53.361C34.2586 53.361 34.9302 52.6895 34.9302 51.861C34.9302 51.0326 34.2586 50.361 33.4302 50.361V53.361ZM22.1345 55.4954C21.1706 55.4954 20.2461 55.1125 19.5645 54.4309L17.4432 56.5522C18.6874 57.7964 20.3749 58.4954 22.1345 58.4954V55.4954ZM19.5645 54.4309C18.8829 53.7493 18.5 52.8248 18.5 51.8609H15.5C15.5 53.6205 16.199 55.308 17.4432 56.5522L19.5645 54.4309ZM18.5 51.8609V29.269H15.5V51.8609H18.5ZM18.5 29.269C18.5 28.3051 18.8829 27.3806 19.5645 26.699L17.4432 24.5777C16.199 25.8219 15.5 27.5094 15.5 29.269H18.5ZM19.5645 26.699C20.2461 26.0174 21.1706 25.6345 22.1345 25.6345V22.6345C20.3749 22.6345 18.6874 23.3335 17.4432 24.5777L19.5645 26.699ZM22.1345 25.6345H25.3872V22.6345H22.1345V25.6345ZM26.6863 24.8845C27.0054 24.3317 27.4645 23.8728 28.0173 23.5538L26.518 20.9553C25.5088 21.5377 24.6708 22.3755 24.0882 23.3845L26.6863 24.8845ZM28.0173 23.5538C28.5176 23.2651 29.0787 23.1002 29.6538 23.0717L29.5053 20.0754C28.4554 20.1275 27.4312 20.4284 26.518 20.9553L28.0173 23.5538ZM31.3416 21.4606C31.3661 21.2167 31.474 20.9874 31.6489 20.8126L29.5276 18.6913C28.8611 19.3577 28.4499 20.2315 28.3566 21.1611L31.3416 21.4606ZM31.6489 20.8126C31.849 20.6124 32.1205 20.5 32.4035 20.5V17.5C31.3248 17.5 30.2903 17.9285 29.5276 18.6913L31.6489 20.8126ZM32.4035 20.5H34.4574V17.5H32.4035V20.5ZM34.4574 20.5C34.5975 20.5 34.7363 20.5276 34.8658 20.5812L36.0138 17.8096C35.5204 17.6052 34.9915 17.5 34.4574 17.5V20.5ZM34.8658 20.5812C34.9953 20.6349 35.1129 20.7135 35.212 20.8126L37.3333 18.6913C36.9557 18.3136 36.5073 18.014 36.0138 17.8096L34.8658 20.5812ZM35.212 20.8126C35.3111 20.9117 35.3897 21.0294 35.4434 21.1588L38.215 20.0108C38.0106 19.5173 37.711 19.069 37.3333 18.6913L35.212 20.8126ZM35.4434 21.1588C35.4834 21.2554 35.5089 21.3571 35.5193 21.4607L38.5043 21.1612C38.4647 20.7664 38.3674 20.3787 38.215 20.0108L35.4434 21.1588ZM37.2062 23.0718C37.7811 23.1006 38.3418 23.2656 38.8418 23.5542L40.3418 20.9562C39.4292 20.4292 38.4056 20.1281 37.3562 20.0756L37.2062 23.0718ZM38.8418 23.5542C39.3943 23.8732 39.8531 24.332 40.1721 24.8845L42.7701 23.3845C42.1879 22.376 41.3504 21.5385 40.3418 20.9562L38.8418 23.5542ZM41.4711 25.6345H44.7264V22.6345H41.4711V25.6345ZM44.7264 25.6345C45.6903 25.6345 46.6148 26.0174 47.2964 26.699L49.4177 24.5777C48.1735 23.3335 46.486 22.6345 44.7264 22.6345V25.6345ZM47.2964 26.699C47.978 27.3806 48.3609 28.3051 48.3609 29.269H51.3609C51.3609 27.5094 50.6619 25.8219 49.4177 24.5777L47.2964 26.699ZM48.3609 29.269V51.8609H51.3609V29.269H48.3609ZM48.3609 51.8609C48.3609 52.8248 47.978 53.7493 47.2964 54.4309L49.4177 56.5522C50.6619 55.308 51.3609 53.6205 51.3609 51.8609H48.3609ZM47.2964 54.4309C46.6148 55.1125 45.6903 55.4954 44.7264 55.4954V58.4954C46.486 58.4954 48.1735 57.7964 49.4177 56.5522L47.2964 54.4309ZM44.7264 55.4954H22.1345V58.4954H44.7264V55.4954ZM35.5193 21.4607C35.6029 22.2941 36.2786 23.0254 37.2062 23.0718L37.3562 20.0756C38.0006 20.1078 38.449 20.61 38.5043 21.1612L35.5193 21.4607ZM29.6538 23.0717C30.5819 23.0257 31.258 22.2942 31.3416 21.4606L28.3566 21.1611C28.4119 20.6097 28.8605 20.1074 29.5053 20.0754L29.6538 23.0717ZM40.6591 24.1345C40.6591 26.1418 39.0319 27.769 37.0246 27.769V30.769C40.6888 30.769 43.6591 27.7987 43.6591 24.1345H40.6591ZM37.0246 27.769H29.8363V30.769H37.0246V27.769ZM29.8363 27.769C27.829 27.769 26.2018 26.1418 26.2018 24.1345H23.2018C23.2018 27.7987 26.1721 30.769 29.8363 30.769V27.769ZM23.1612 40.1979H28.2957V37.1979H23.1612V40.1979ZM29.2661 39.8417L33.117 36.5743L31.1761 34.2867L27.3252 37.5542L29.2661 39.8417ZM30.9466 36.3305L34.7975 41.465L37.1975 39.665L33.3466 34.5305L30.9466 36.3305ZM37.2335 41.4148L39.8008 37.6806L37.3287 35.981L34.7614 39.7152L37.2335 41.4148ZM37.3287 37.6806L38.6123 39.5477L41.0844 37.8481L39.8008 35.981L37.3287 37.6806ZM39.8483 40.1979H43.6992V37.1979H39.8483V40.1979ZM23.1612 48.2265H38.5647V45.2265H23.1612V48.2265ZM23.1612 53.361H33.4302V50.361H23.1612V53.361Z" fill="white"/>
</svg>
