<svg width="200" height="68" viewBox="0 0 200 68" fill="none" xmlns="http://www.w3.org/2000/svg">
<g clip-path="url(#clip0_2273_3755)">
<path d="M73.3799 0.666016H0.664062V67.3342H73.3799V0.666016Z" stroke="black" stroke-width="2.32" stroke-miterlimit="10"/>
<path d="M26.2345 5.63086H22.4116C22.4116 13.5927 15.195 20.0506 6.29004 20.0506V23.4948C17.3067 23.4661 26.2345 15.4985 26.2345 5.63086Z" fill="black"/>
<path d="M30.2803 5.58594L68.1605 56.6405V5.58594H30.2803Z" fill="black"/>
<path d="M63.5826 62.243H65.0992L15.6815 25.614C17.171 25.0275 18.5991 24.2949 19.9451 23.4269L64.2179 59.7288L23.0927 21.0274C25.2747 19.0903 27.026 16.7144 28.2328 14.0541C29.4396 11.3938 30.075 8.5086 30.0976 5.58594H27.1389C27.1389 15.9472 18.1195 24.3683 6.86816 24.684L63.5826 62.243Z" fill="black"/>
<path d="M6.29004 26.4121V27.3822V62.2433H63.5081L6.29004 26.4121Z" fill="black"/>
<path fill-rule="evenodd" clip-rule="evenodd" d="M83.5835 6.3612H82.6621V5.54033H79.898V6.3612H78.9766V3.44511C78.9766 2.62424 79.4344 2.21094 80.3558 2.21094H82.1986C83.12 2.21094 83.5835 2.62424 83.5835 3.44511V6.3612ZM82.6621 4.71946V3.44511C82.6621 3.16957 82.5076 3.03755 82.1986 3.03755H80.3558C80.0468 3.03755 79.898 3.16957 79.898 3.44511V4.71946H82.6621ZM89.8044 6.3612H88.6255L87.1547 4.71946H86.1131V6.3612H85.1917V2.25112H86.1131V3.8986H87.1547L88.6255 2.25112H89.8044L87.9559 4.30616L89.8044 6.3612ZM95.7906 2.25112H94.8692V5.54033H92.105V2.25112H91.1836V6.3612H95.3328V7.18781H96.2542V5.54033H95.7906V2.25112ZM102.469 2.25112H101.548L98.7894 5.12129V2.25112H97.8623V6.3612H98.7894L101.548 3.49103V6.3612H102.469V2.25112ZM108.696 5.19591C108.696 6.02252 108.232 6.43008 107.311 6.43008H105.468C104.547 6.43008 104.083 6.02252 104.083 5.19591V3.44511C104.083 2.62424 104.547 2.21094 105.468 2.21094H107.311C108.232 2.21094 108.696 2.62424 108.696 3.44511V5.19591ZM107.769 5.19591V3.44511C107.769 3.16957 107.614 3.03755 107.311 3.03755H105.468C105.159 3.03755 105.005 3.16957 105.005 3.44511V5.22461C105.005 5.50015 105.159 5.63792 105.468 5.63792H107.311C107.591 5.60922 107.769 5.47145 107.769 5.19591ZM114.911 6.34398H113.99V4.71946H111.225V6.3612H110.304V2.25112H111.225V3.8986H113.99V2.25112H114.911V6.34398ZM121.132 3.06051H117.446V3.8986H120.21V4.71946H117.446V5.54033H121.132V6.3612H116.553V2.25112H121.132V3.06051ZM127.353 3.46807V3.88137C127.353 4.70224 126.895 5.11555 125.973 5.11555H123.684V6.34398H122.763V2.25112H125.991C126.895 2.25112 127.353 2.66442 127.353 3.48529V3.46807ZM126.431 3.46807C126.431 3.19253 126.277 3.06051 125.973 3.06051H123.684V4.30616H125.973C126.277 4.30616 126.431 4.16839 126.431 3.8986V3.46807ZM133.574 6.33824H132.652V4.71946H129.911V6.3612H128.989V2.25112H129.911V3.8986H132.675V2.25112H133.596L133.574 6.33824ZM139.794 5.19017C139.794 6.01678 139.331 6.42434 138.409 6.42434H136.567C135.645 6.42434 135.182 6.01678 135.182 5.19017V3.44511C135.182 2.62424 135.645 2.21094 136.567 2.21094H138.409C139.331 2.21094 139.794 2.62424 139.794 3.44511V5.19017ZM138.873 5.19017V3.44511C138.873 3.16957 138.718 3.03755 138.409 3.03755H136.567C136.263 3.03755 136.109 3.16957 136.109 3.44511V5.22461C136.109 5.50015 136.263 5.63792 136.567 5.63792H138.409C138.718 5.61878 138.873 5.47145 138.873 5.19591V5.19017ZM146.01 3.07199H142.33V3.8986H145.088V4.71946H142.33V5.54033H146.01V6.3612H141.431V2.25112H146.01V3.07199ZM154.92 5.19591C154.92 6.02252 154.462 6.43008 153.541 6.43008H151.698C150.771 6.43008 150.313 6.02252 150.313 5.19591V3.44511C150.313 2.62424 150.771 2.21094 151.698 2.21094H153.541C154.462 2.21094 154.92 2.62424 154.92 3.44511V5.19591ZM153.999 5.19591V3.44511C153.999 3.16957 153.844 3.03755 153.541 3.03755H151.698C151.389 3.03755 151.235 3.16957 151.235 3.44511V5.22461C151.235 5.50015 151.389 5.63792 151.698 5.63792H153.541C153.844 5.60922 153.999 5.47145 153.999 5.19591ZM159.756 3.8986H157.467V3.07773H160.689V2.25112H156.545V6.3612H159.768C160.689 6.3612 161.152 5.95363 161.152 5.13277C161.152 4.3119 160.677 3.8986 159.756 3.8986ZM159.756 5.54033H157.467V4.71946H159.756C160.065 4.71946 160.22 4.85723 160.22 5.13277C160.242 5.40256 160.065 5.54033 159.756 5.54033ZM168.283 2.25112H167.362V5.54033H165.965V2.25112H165.044V5.54033H163.676V2.25112H162.755V6.3612H167.82V7.18781H168.741V5.54033H168.283V2.25112ZM174.962 3.07773H171.276V3.8986H174.041V4.71946H171.276V5.54033H174.962V6.3612H170.355V2.25112H174.962V3.07773ZM181.183 6.3612H177.984C177.057 6.3612 176.599 5.95363 176.599 5.13277V3.48529C176.599 2.66442 177.057 2.25112 177.984 2.25112H181.206V3.07773H177.984C177.675 3.07773 177.52 3.20976 177.52 3.48529V5.13277C177.52 5.40256 177.675 5.54033 177.984 5.54033H181.206L181.183 6.3612ZM187.404 3.07773H185.561V6.3612H184.639V3.07773H182.797V2.25112H187.375L187.404 3.07773ZM193.333 4.30042C193.438 4.19341 193.519 4.06441 193.57 3.92256C193.62 3.78071 193.639 3.62947 193.624 3.47955C193.624 2.65868 193.155 2.25112 192.24 2.25112H189.018V6.3612H192.24C193.161 6.3612 193.624 5.95363 193.624 5.13277C193.637 4.98121 193.618 4.82862 193.568 4.68512C193.517 4.54163 193.437 4.41049 193.333 4.30042ZM192.24 3.8986H189.95V3.07773H192.24C192.549 3.07773 192.703 3.20976 192.703 3.48529C192.703 3.76083 192.549 3.8986 192.24 3.8986ZM192.24 5.54033H189.95V4.71946H192.24C192.549 4.71946 192.703 4.85723 192.703 5.13277C192.703 5.40256 192.549 5.54033 192.24 5.54033ZM199.84 5.19591C199.84 6.02252 199.382 6.43008 198.46 6.43008H196.618C195.696 6.43008 195.238 6.02252 195.238 5.19591V3.44511C195.238 2.62424 195.696 2.21094 196.618 2.21094H198.46C199.382 2.21094 199.84 2.62424 199.84 3.44511V5.19591ZM198.918 5.19591V3.44511C198.918 3.16957 198.769 3.03755 198.46 3.03755H196.618C196.309 3.03755 196.16 3.16957 196.16 3.44511V5.22461C196.16 5.50015 196.309 5.63792 196.618 5.63792H198.46C198.769 5.60922 198.918 5.47145 198.918 5.19591Z" fill="black"/>
<path fill-rule="evenodd" clip-rule="evenodd" d="M84.6133 10.9995H78.9189V17.3426H80.344V12.2682H84.6133V10.9995ZM92.6712 12.8996V13.5368C92.6712 14.8073 91.9596 15.4406 90.5365 15.4368H86.9883V17.3426H85.5576V11.0282H90.5365C91.9635 11.0091 92.675 11.6329 92.6712 12.8996ZM91.2519 12.8996C91.2519 12.4748 91.0115 12.2682 90.5365 12.2682H86.9883V14.1682H90.5423C91.0173 14.1682 91.2576 13.9558 91.2576 13.5368L91.2519 12.8996ZM94.6857 16.074H95.4468C95.6128 16.074 95.8474 15.8616 96.1565 15.4368L97.055 14.1682L93.976 10.9995H95.836L97.9134 13.112L99.3899 10.9995H101.107C100.535 11.8491 99.7848 12.8709 98.9321 14.0649C98.6173 14.5069 98.3598 14.857 98.1767 15.1096L97.736 15.6837C97.6273 15.8157 97.5529 15.9018 97.5071 15.9477C97.4713 15.9754 97.442 16.0107 97.4213 16.051C96.849 16.9063 96.2767 17.3311 95.6128 17.3311H94.7028L94.6857 16.074ZM109.148 17.3426H107.728V12.2682H103.459V17.3426H102.034V11.0282H109.148V17.3426ZM117.566 17.3426H116.141V12.2682H111.877V17.3426H110.452V11.0282H117.566V17.3426ZM125.979 17.3426H124.559V16.074H120.29V17.3426H118.871V12.7963C118.871 11.5257 119.581 10.8905 121 10.8905H123.861C125.281 10.8905 125.99 11.5257 125.99 12.7963L125.979 17.3426ZM124.559 14.8054V12.7963C124.559 12.3715 124.325 12.1591 123.85 12.1591H120.988C120.519 12.1591 120.279 12.3715 120.279 12.7963V14.8054H124.559ZM139.731 17.3426H137.923L135.633 14.8054H134.031V17.3426H132.606V11.0282H134.031V13.5655H135.633L137.923 11.0282H139.737L136.875 14.1969L139.731 17.3426ZM147.789 15.5459C147.789 16.8164 147.079 17.4498 145.66 17.4459H142.799C141.372 17.4459 140.66 16.8126 140.664 15.5459V12.7963C140.664 11.5257 141.375 10.8905 142.799 10.8905H145.66C147.079 10.8905 147.789 11.5257 147.789 12.7963V15.5459ZM146.37 15.5459V12.7963C146.37 12.3715 146.129 12.1591 145.66 12.1591H142.799C142.324 12.1591 142.089 12.3715 142.089 12.7963V15.5459C142.089 15.9649 142.324 16.1773 142.799 16.1773H145.66C146.129 16.1773 146.37 15.9649 146.37 15.5459ZM157.632 17.3426H156.236V13.3646L153.375 17.3426L150.513 13.3646V17.3426H149.088V11.0282H150.513L153.375 15.0006L156.236 11.0282H157.661L157.632 17.3426ZM166.045 17.3426H164.626V12.2682H160.357V17.3426H158.932V11.0282H166.045V17.3426ZM174.464 17.3426H173.039V16.074H168.775V17.3426H167.35V12.7963C167.35 11.5277 168.065 10.8905 169.485 10.8905H172.346C173.765 10.8905 174.481 11.5277 174.481 12.7963L174.464 17.3426ZM173.039 14.8054V12.7963C173.039 12.3715 172.804 12.1591 172.329 12.1591H169.467C168.992 12.1591 168.758 12.3715 168.758 12.7963V14.8054H173.039ZM182.882 17.3426H181.457V14.8054H177.188V17.3426H175.768V11.0282H177.188V13.5655H181.457V10.9995H182.882V17.3426ZM191.295 11.0282H189.876L185.606 15.4253V10.9995H184.181V17.3426H185.606L189.876 12.9455V17.3426H191.295V11.0282ZM199.713 11.0282H198.288L194.008 15.3966V10.9995H192.583V17.3426H194.008L198.271 12.9455V17.3426H199.73L199.713 11.0282ZM196.852 10.3911H195.433V9.09375H196.869L196.852 10.3911Z" fill="black"/>
<path fill-rule="evenodd" clip-rule="evenodd" d="M115.334 28.1283H86.2043V34.6092H108.049V41.1072H86.2043V47.6053H115.334V54.0976H78.9189V21.613H115.334V28.1283ZM158.422 54.1148H149.134L137.482 41.1072H129.292V54.0976H122.007V21.613H129.292V34.6092H137.482L149.134 21.613H158.422L143.857 37.8869L158.422 54.1148ZM199.685 54.1148H174.2C166.917 54.1148 163.275 50.862 163.275 44.3562V31.3601C163.275 24.8544 166.917 21.6016 174.2 21.6016H199.685V28.1283H174.2C171.762 28.1283 170.543 29.2056 170.543 31.3601V44.3562C170.543 46.5223 171.759 47.6053 174.189 47.6053H199.673L199.685 54.1148Z" fill="black"/>
<path d="M84.5907 62.5126C84.5907 63.5286 83.9612 64.0395 82.7079 64.0395H80.2012C78.9479 64.0395 78.3184 63.5286 78.3184 62.5126V60.3083C78.3184 59.2923 78.9479 58.7871 80.2012 58.7871H82.7079C83.9612 58.7871 84.5907 59.2923 84.5907 60.3083V62.5126ZM83.3317 62.5126V60.3083C83.3317 59.9696 83.1256 59.8031 82.7079 59.8031H80.2012C79.7834 59.8031 79.5717 59.9696 79.5717 60.3083V62.5126C79.5717 62.8513 79.7834 63.0235 80.2012 63.0235H82.7079C83.1256 63.0235 83.3317 62.8513 83.3317 62.5126Z" fill="black"/>
<path d="M90.4797 63.954H87.6182C86.4737 63.954 85.9014 63.489 85.9014 62.5533V61.6234C85.9014 60.6935 86.4737 60.2285 87.6182 60.2285H90.4797V61.1584H87.6182C87.2348 61.1584 87.046 61.3134 87.046 61.6234V62.5706C87.046 62.8863 87.2348 63.0413 87.6182 63.0413H90.4797V63.954Z" fill="black"/>
<path d="M96.3743 63.9544H95.2297V62.5709H92.9405V63.9716H91.7959V60.2461H92.9405V61.641H95.2297V60.2461H96.3743V63.9544Z" fill="black"/>
<path d="M102.269 62.6396C102.269 63.5753 101.696 64.0403 100.552 64.0403H99.4073C98.2627 64.0403 97.6904 63.5753 97.6904 62.6396V61.5375C97.6904 60.6075 98.2627 60.1426 99.4073 60.1426H100.552C101.696 60.1426 102.269 60.6075 102.269 61.5375V62.6396ZM101.124 62.6396V61.5375C101.124 61.2275 100.935 61.0725 100.552 61.0725H99.4073C99.0239 61.0725 98.835 61.2275 98.835 61.5375V62.6396C98.835 62.9496 99.0296 63.1046 99.4073 63.1046H100.552C100.93 63.1046 101.118 62.9496 101.118 62.6396H101.124Z" fill="black"/>
<path d="M108.163 62.8118C108.163 63.5753 107.683 63.9599 106.721 63.9599H103.585V60.2344H106.744C107.694 60.2344 108.18 60.6247 108.186 61.3824C108.177 61.5188 108.135 61.6511 108.066 61.7687C107.996 61.8863 107.9 61.986 107.786 62.0598C107.903 62.1468 107.998 62.2602 108.064 62.3908C108.129 62.5214 108.163 62.6656 108.163 62.8118ZM107.019 61.4226C107.019 61.2562 106.921 61.17 106.727 61.17H104.73V61.635H106.738C106.916 61.6235 107.019 61.5547 107.019 61.4226ZM107.019 62.8233C107.019 62.6511 106.921 62.565 106.727 62.565H104.73V63.0357H106.738C106.916 63.0242 107.019 62.9496 107.019 62.8118V62.8233Z" fill="black"/>
<path d="M110.899 63.954C109.938 63.954 109.457 63.5579 109.457 62.7657C109.457 62.008 109.938 61.6177 110.899 61.6177H112.908C112.908 61.3134 112.713 61.1584 112.336 61.1584H109.675V60.2285H112.336C113.48 60.2285 114.053 60.6935 114.053 61.6234V63.954H110.899ZM110.899 63.0241H112.908V62.5706H110.899C110.705 62.5706 110.607 62.6509 110.607 62.8002C110.607 62.9494 110.705 63.0241 110.899 63.0241Z" fill="black"/>
<path d="M119.948 63.9544H118.803V62.5709H116.514V63.9716H115.369V60.2461H116.514V61.641H118.803V60.2461H119.948V63.9544Z" fill="black"/>
<path d="M125.842 62.6396C125.842 63.5753 125.27 64.0403 124.125 64.0403H122.981C121.836 64.0403 121.264 63.5753 121.264 62.6396V61.5375C121.264 60.6075 121.836 60.1426 122.981 60.1426H124.125C125.27 60.1426 125.842 60.6075 125.842 61.5375V62.6396ZM124.697 62.6396V61.5375C124.697 61.2275 124.509 61.0725 124.125 61.0725H122.981C122.597 61.0725 122.408 61.2275 122.408 61.5375V62.6396C122.408 62.9496 122.597 63.1046 122.981 63.1046H124.125C124.503 63.1046 124.692 62.9496 124.692 62.6396H124.697Z" fill="black"/>
<path d="M137.632 62.8118C137.632 63.5753 137.151 63.9599 136.189 63.9599H133.03V60.2344H136.207C137.157 60.2344 137.637 60.6247 137.649 61.3824C137.639 61.5188 137.598 61.6511 137.528 61.7687C137.459 61.8863 137.363 61.986 137.248 62.0598C137.366 62.1462 137.463 62.2593 137.529 62.3899C137.596 62.5206 137.631 62.6651 137.632 62.8118ZM136.487 61.4111C136.487 61.2447 136.39 61.1586 136.195 61.1586H134.186V61.6235H136.207C136.384 61.6235 136.481 61.5547 136.481 61.4226L136.487 61.4111ZM136.487 62.8118C136.487 62.6396 136.39 62.5535 136.195 62.5535H134.186V63.0242H136.207C136.384 63.0242 136.481 62.9496 136.481 62.8118H136.487Z" fill="black"/>
<path d="M147.326 63.9532H146.073V59.8891H144.819V58.873H147.326V63.9532Z" fill="black"/>
<path d="M154.892 62.4263C154.892 63.4424 154.262 63.9532 153.009 63.9532H149.249V62.9372H153.009C153.427 62.9372 153.638 62.765 153.638 62.4263V61.9212H150.514C149.26 61.9212 148.631 61.4103 148.631 60.3942C148.631 59.3782 149.26 58.873 150.514 58.873H153.02C154.274 58.873 154.903 59.3782 154.903 60.3942L154.892 62.4263ZM153.638 60.9109V60.3942C153.638 60.0556 153.427 59.8891 153.009 59.8891H150.514C150.096 59.8891 149.89 60.0556 149.89 60.3942C149.89 60.7329 150.096 60.9051 150.514 60.9051L153.638 60.9109Z" fill="black"/>
<path d="M162.457 58.873V59.8891L158.954 63.9532H157.444L160.94 59.8891H156.185V58.873H162.457Z" fill="black"/>
<path d="M169.399 62.4263C169.399 63.4424 168.775 63.9532 167.522 63.9532H165.639C164.385 63.9532 163.756 63.4424 163.756 62.4263V60.3942C163.756 59.3782 164.385 58.873 165.639 58.873H167.522C168.775 58.873 169.399 59.3782 169.399 60.3942V62.4263ZM168.145 62.4263V60.3942C168.145 60.0556 167.939 59.8891 167.522 59.8891H165.639C165.221 59.8891 165.009 60.0556 165.009 60.3942V62.4263C165.009 62.765 165.221 62.9372 165.639 62.9372H167.522C167.934 62.9372 168.14 62.765 168.14 62.4263H168.145Z" fill="black"/>
<path d="M178.018 61.6234H179.734C179.912 61.6234 180.009 61.5431 180.015 61.3881C180.021 61.2331 179.912 61.1585 179.734 61.1585H176.873V60.2285H179.734C180.684 60.2285 181.165 60.6074 181.165 61.3766C181.165 62.1458 180.684 62.5591 179.734 62.5591H178.018C177.829 62.5591 177.731 62.6395 177.731 62.8002C177.731 62.9609 177.829 63.0298 178.018 63.0298H180.879V63.9597H178.018C177.062 63.9597 176.581 63.5694 176.581 62.8117C176.581 62.0539 177.062 61.6234 178.018 61.6234Z" fill="black"/>
<path d="M187.077 62.6396C187.077 63.5753 186.505 64.0403 185.36 64.0403H184.216C183.071 64.0403 182.499 63.5753 182.499 62.6396V61.5375C182.499 60.6075 183.071 60.1426 184.216 60.1426H185.36C186.505 60.1426 187.077 60.6075 187.077 61.5375V62.6396ZM185.933 62.6396V61.5375C185.933 61.2275 185.738 61.0725 185.36 61.0725H184.216C183.832 61.0725 183.644 61.2275 183.644 61.5375V62.6396C183.644 62.9496 183.832 63.1046 184.216 63.1046H185.36C185.732 63.1046 185.927 62.9496 185.927 62.6396H185.933Z" fill="black"/>
<path d="M192.966 64.4186C192.966 65.3485 192.394 65.8192 191.249 65.8192H189.532V64.8663H191.249C191.633 64.8663 191.821 64.7114 191.821 64.4014V63.9364H190.105C188.96 63.9364 188.388 63.4714 188.388 62.5358V61.6058C188.388 60.6759 188.96 60.2109 190.105 60.2109H192.966V64.4186ZM191.821 61.1581H190.105C189.721 61.1581 189.532 61.3131 189.532 61.6231V62.5702C189.532 62.8859 189.721 63.0409 190.105 63.0409H191.821V61.1581Z" fill="black"/>
<path d="M194.889 64.8661H195.416C195.599 64.8661 195.839 64.6939 196.137 64.3437L196.469 63.7697L194.266 60.1992H195.548L197.139 62.7824L198.718 60.1992H200L197.711 63.9247L197.236 64.6939C197.063 65.0246 196.803 65.3016 196.484 65.4948C196.165 65.6881 195.8 65.7902 195.427 65.7903H194.895L194.889 64.8661Z" fill="black"/>
</g>
<defs>
<clipPath id="clip0_2273_3755">
<rect width="200" height="68" fill="black"/>
</clipPath>
</defs>
</svg>