<svg width="8" height="14" viewBox="0 0 8 14" fill="none" xmlns="http://www.w3.org/2000/svg">
<path d="M0.570807 7.56024L5.55281 12.6806C5.66204 12.7938 5.79199 12.8837 5.93518 12.945C6.07836 13.0063 6.23194 13.0378 6.38706 13.0378C6.54217 13.0378 6.69575 13.0063 6.83893 12.945C6.98212 12.8837 7.11208 12.7938 7.22131 12.6806C7.44015 12.4544 7.56299 12.1483 7.56299 11.8292C7.56299 11.5102 7.44015 11.2041 7.22131 10.9779L3.06181 6.70281L7.22131 2.42777C7.44015 2.2015 7.56299 1.89542 7.56299 1.57638C7.56299 1.25734 7.44015 0.951265 7.22131 0.724998C7.11152 0.613073 6.98131 0.524524 6.83815 0.464426C6.69499 0.404328 6.5417 0.373866 6.38706 0.374784C6.23242 0.373866 6.07913 0.404328 5.93597 0.464426C5.79281 0.524524 5.6626 0.613073 5.55281 0.724998L0.570807 5.84539C0.460676 5.95765 0.373263 6.09122 0.31361 6.23838C0.253956 6.38554 0.223244 6.54339 0.223244 6.70281C0.223244 6.86223 0.253956 7.02008 0.31361 7.16724C0.373263 7.3144 0.460676 7.44797 0.570807 7.56024Z" fill="#F2F2F2"/>
</svg>
